#tb 0: 1/25
#media_type 0: video
#codec_id 0: rawvideo
#dimensions 0: 416x240
#sar 0: 0/1
0,          0,          0,        1,   149760, 0x479fa7ca
0,          1,          1,        1,   149760, 0x761fb3a3
0,          2,          2,        1,   149760, 0xa0f4cd97
0,          3,          3,        1,   149760, 0x22a0c92b
0,          4,          4,        1,   149760, 0xdedc8cb2
0,          5,          5,        1,   149760, 0x38da8674
0,          6,          6,        1,   149760, 0xe5d77e68
0,          7,          7,        1,   149760, 0x31cc6196
0,          8,          8,        1,   149760, 0xdb70f4d3
0,          9,          9,        1,   149760, 0x966b6f89
0,         10,         10,        1,   149760, 0x2297ff66
0,         11,         11,        1,   149760, 0x2a2fa4e7
0,         12,         12,        1,   149760, 0x217442b7
0,         13,         13,        1,   149760, 0x5341ff7f
0,         14,         14,        1,   149760, 0xb413af37
0,         15,         15,        1,   149760, 0x61c86ce5
0,         16,         16,        1,   149760, 0x6b1a0c63
0,         17,         17,        1,   149760, 0x4596d2e5
0,         18,         18,        1,   149760, 0xafc0abbd
0,         19,         19,        1,   149760, 0xb9197a81
0,         20,         20,        1,   149760, 0xf67d43f3
0,         21,         21,        1,   149760, 0xe7ef11f2
0,         22,         22,        1,   149760, 0x89180592
0,         23,         23,        1,   149760, 0xf6900816
0,         24,         24,        1,   149760, 0x7cb2f3c0
0,         25,         25,        1,   149760, 0x71c269f5
0,         26,         26,        1,   149760, 0x19720666
0,         27,         27,        1,   149760, 0x5794f402
0,         28,         28,        1,   149760, 0xe08bf8d2
0,         29,         29,        1,   149760, 0x11638859
0,         30,         30,        1,   149760, 0x5024fddc
0,         31,         31,        1,   149760, 0x8b3d4a37
0,         32,         32,        1,   149760, 0x5f727144
0,         33,         33,        1,   149760, 0xb6cf2d76
0,         34,         34,        1,   149760, 0xf528b070
0,         35,         35,        1,   149760, 0x3e95f116
0,         36,         36,        1,   149760, 0x1db5f92a
0,         37,         37,        1,   149760, 0xf8331667
0,         38,         38,        1,   149760, 0x57ca4161
0,         39,         39,        1,   149760, 0x7add32bd
0,         40,         40,        1,   149760, 0x4b84af44
0,         41,         41,        1,   149760, 0xf3e1eeaf
0,         42,         42,        1,   149760, 0x0d602ea8
0,         43,         43,        1,   149760, 0x420bfdf8
0,         44,         44,        1,   149760, 0x6e2eb72f
0,         45,         45,        1,   149760, 0x0450e4ba
0,         46,         46,        1,   149760, 0xbfa60971
0,         47,         47,        1,   149760, 0x89791529
0,         48,         48,        1,   149760, 0x4e32e37b
0,         49,         49,        1,   149760, 0x273f0927
0,         50,         50,        1,   149760, 0x0373f961
0,         51,         51,        1,   149760, 0x5f105bd2
0,         52,         52,        1,   149760, 0x6b1b290a
0,         53,         53,        1,   149760, 0xeaad4ccb
0,         54,         54,        1,   149760, 0xeb21c2e6
0,         55,         55,        1,   149760, 0x342ff483
0,         56,         56,        1,   149760, 0x0ac70398
0,         57,         57,        1,   149760, 0x5366fd7c
0,         58,         58,        1,   149760, 0xc05249b6
0,         59,         59,        1,   149760, 0x32279e70
